<svg xmlns="http://www.w3.org/2000/svg" version="1.1"><polyline points="3.5,1.0,3.5,9.0,3.5,17.0,3.5,25.5,4.0,33.5,4.0,41.5,4.0,50.0,4.0,58.0,4.0,66.0,3.5,74.0,3.5,82.0,3.5,90.0,3.5,98.0,3.0,106.5,3.0,114.5,2.5,122.5,2.5,130.5,2.5,138.0,2.0,145.5,2.0,153.0,2.0,161.5,2.0,169.5,2.0,177.5,2.5,185.5,2.0,193.0,2.5,201.0,2.5,209.0,2.5,217.0,3.0,225.0,3.5,233.0,3.5,241.0,3.5,249.0,3.5,257.5,3.5,265.5,3.0,273.5,2.5,281.5,2.5,289.5,2.5,298.0,2.5,306.0,2.5,313.5,3.0,321.5,3.0,329.5,2.5,337.0,3.0,345.5,3.0,353.5,3.0,361.5,3.0,369.5,3.0,377.0,3.0,385.0,3.0,393.0,3.0,401.0,3.0,409.0,3.0,417.0,3.5,425.0,3.5,433.0,3.5,441.5,3.5,449.5,3.5,457.5,3.5,466.0,4.0,474.0,4.0,482.0,3.5,490.0,3.0,498.0,2.5,506.0,4.5,513.5,12.5,513.5,20.5,513.0,28.5,513.0,36.5,513.0,44.0,513.0,52.0,513.0,60.0,513.0,68.5,513.0,77.0,513.0,85.5,513.5,93.5,513.5,101.5,513.5,109.5,514.0,117.0,514.0,125.0,514.5,133.0,514.5,141.0,514.5,149.0,514.5,157.0,514.5,164.5,514.0,172.5,514.0,180.0,514.0,188.0,514.0,196.0,514.0,204.0,513.5,212.0,513.5,220.0,513.5,228.0,513.0,236.0,513.0,244.0,513.0,252.5,512.5,260.5,512.5,269.0,512.5,277.0,512.5,285.5,512.5,293.5,512.5,301.5,512.5,309.0,512.0,317.0,512.0,325.0,512.5,332.5,512.5,340.5,513.0,348.5,513.0,356.5,513.0,364.0,513.5,372.0,513.5,380.0,513.5,388.0,514.0,396.5,514.0,404.5,514.0,412.0,514.0,420.0,514.5,428.0,514.5,436.0,515.0,444.0,515.0,452.0,515.0,460.0,515.0,468.0,514.5,476.0,514.0,484.5,513.5,492.5,513.0,501.0,512.5,509.5,512.5" stroke="black" stroke-width="2" fill="none" />
<polyline points="404.0,386.0,412.0,378.5" stroke="black" stroke-width="2" fill="none" />
<polyline points="413.0,371.0,405.0,378.5,397.0,386.0" stroke="black" stroke-width="2" fill="none" />
<polyline points="388.5,387.5,396.0,379.5,404.0,372.5,411.5,365.0" stroke="black" stroke-width="2" fill="none" />
<polyline points="403.5,364.0,395.5,371.5,387.5,379.0,380.0,386.0" stroke="black" stroke-width="2" fill="none" />
<polyline points="370.5,386.0,379.0,378.0,387.0,370.0,395.5,362.5,403.5,354.5" stroke="black" stroke-width="2" fill="none" />
<polyline points="403.0,346.5,395.0,353.5,386.5,361.5,378.5,369.5,370.0,378.0" stroke="black" stroke-width="2" fill="none" />
<polyline points="372.5,375.5,380.0,375.0,388.0,375.0,396.5,375.0,405.5,375.0,413.5,374.5" stroke="black" stroke-width="2" fill="none" />
<polyline points="394.5,346.5,386.5,354.0,379.0,361.5,371.0,368.5,363.5,375.5" stroke="black" stroke-width="2" fill="none" />
<polyline points="364.0,374.0,372.0,373.5,380.0,373.5,388.0,373.5,397.0,372.5,405.5,371.5,413.5,371.0" stroke="black" stroke-width="2" fill="none" />
<polyline points="393.5,339.5,386.0,347.0,378.5,354.0,371.0,361.5,363.0,369.0" stroke="black" stroke-width="2" fill="none" />
<polyline points="363.5,369.5,371.5,369.0,379.5,368.5,388.0,368.5,396.5,368.5,404.5,368.0" stroke="black" stroke-width="2" fill="none" />
<polyline points="393.5,331.0,386.0,339.0,378.5,346.5,371.0,354.0,364.0,362.0" stroke="black" stroke-width="2" fill="none" />
<polyline points="362.5,361.5,371.0,360.5,379.5,360.0,388.0,359.0,395.5,358.5,403.5,358.5" stroke="black" stroke-width="2" fill="none" />
<polyline points="394.0,323.5,386.0,331.0,378.0,338.5,370.5,346.5,363.0,354.5" stroke="black" stroke-width="2" fill="none" />
<polyline points="362.0,353.5,370.0,353.0,378.0,352.5,385.5,352.0,393.0,352.0,401.5,351.0" stroke="black" stroke-width="2" fill="none" />
<polyline points="387.5,325.5,379.5,333.0,371.0,340.0,363.5,347.5,356.0,354.5" stroke="black" stroke-width="2" fill="none" />
<polyline points="353.5,358.0,362.0,357.5,370.0,356.5,378.0,356.0,386.5,355.0,395.0,354.0,403.0,354.0" stroke="black" stroke-width="2" fill="none" />
<polyline points="387.5,316.0,379.5,323.5,371.5,331.5,363.5,339.5,355.0,347.0" stroke="black" stroke-width="2" fill="none" />
<polyline points="355.5,345.5,363.5,345.5,371.5,345.5,379.0,345.0,387.0,344.0,395.0,343.0" stroke="black" stroke-width="2" fill="none" />
<polyline points="388.0,308.5,380.0,315.5,372.5,322.5,365.5,330.0,357.5,337.5" stroke="black" stroke-width="2" fill="none" />
<polyline points="355.0,340.0,363.5,339.5,371.5,339.5,379.5,339.0,387.5,339.0,395.5,338.5,404.0,337.5" stroke="black" stroke-width="2" fill="none" />
<polyline points="387.0,300.5,379.0,307.5,371.5,315.0,363.5,322.0,356.0,329.0" stroke="black" stroke-width="2" fill="none" />
<polyline points="355.0,328.5,363.0,328.0,371.0,327.0,379.0,326.5,387.5,326.5" stroke="black" stroke-width="2" fill="none" />
<polyline points="377.0,298.5,369.5,305.5,362.0,313.0,354.0,321.0,346.5,329.0" stroke="black" stroke-width="2" fill="none" />
<polyline points="349.5,326.0,357.0,326.0,364.0,326.0,371.0,326.0,378.5,325.5,386.5,325.0,393.5,325.0" stroke="black" stroke-width="2" fill="none" />
<polyline points="378.5,291.5,370.5,299.0,362.5,306.0,355.5,313.5,348.5,320.5" stroke="black" stroke-width="2" fill="none" />
<polyline points="346.0,323.0,354.5,322.5,362.5,322.0,370.5,321.5,379.0,321.5,387.0,321.0" stroke="black" stroke-width="2" fill="none" />
<polyline points="403.5,346.0,394.5,346.5,387.0,347.0,379.5,347.0,372.0,347.5,364.0,348.0,356.5,349.0" stroke="black" stroke-width="2" fill="none" />
<polyline points="354.0,335.5,362.0,335.5,370.5,335.0,378.5,334.5,386.5,334.0,394.5,333.5" stroke="black" stroke-width="2" fill="none" />
<polyline points="410.5,362.5,402.5,362.5,394.0,363.0,386.5,364.0,379.0,365.0,371.5,365.5,363.5,365.5" stroke="black" stroke-width="2" fill="none" />
<polyline points="365.0,381.0,373.0,380.5,381.0,379.5,389.0,379.0,397.5,379.0,405.5,378.5,413.0,378.5" stroke="black" stroke-width="2" fill="none" />
<polyline points="395.0,330.5,387.0,331.5,379.0,332.0,371.0,333.0,363.0,333.5,355.5,334.0,348.0,334.5" stroke="black" stroke-width="2" fill="none" />
<polyline points="346.5,317.5,354.5,317.0,362.5,317.0,370.5,317.0,378.0,316.5,386.5,316.0,394.5,315.5" stroke="black" stroke-width="2" fill="none" />
<polyline points="380.5,282.5,372.5,290.5,364.0,297.5,356.0,305.0,348.0,313.0" stroke="black" stroke-width="2" fill="none" />
<polyline points="347.0,314.5,355.0,314.0,362.5,313.5,370.5,312.5,379.5,312.5,388.0,312.0" stroke="black" stroke-width="2" fill="none" />
<polyline points="380.5,274.5,373.0,282.5,365.0,290.5,357.0,298.0,349.0,305.0" stroke="black" stroke-width="2" fill="none" />
<polyline points="347.0,307.5,355.0,306.5,363.0,305.5,371.0,305.0,379.0,304.0" stroke="black" stroke-width="2" fill="none" />
<polyline points="372.0,277.0,364.0,284.5,356.0,291.5,348.0,299.0,340.0,306.0" stroke="black" stroke-width="2" fill="none" />
<polyline points="340.0,302.0,348.0,301.5,356.0,301.0,364.0,300.5,372.0,299.5,379.5,298.5,387.0,297.5" stroke="black" stroke-width="2" fill="none" />
<polyline points="371.5,267.0,363.5,274.5,355.0,281.5,347.0,289.0,339.0,297.0" stroke="black" stroke-width="2" fill="none" />
<polyline points="341.0,298.0,349.5,297.5,357.5,297.5,365.5,296.5,372.5,296.0,380.5,295.0" stroke="black" stroke-width="2" fill="none" />
<polyline points="370.0,258.0,362.0,265.5,354.5,273.0,346.5,280.5,339.0,287.5,331.5,294.5" stroke="black" stroke-width="2" fill="none" />
<polyline points="323.5,296.0,331.0,288.5,339.0,281.5,347.5,274.0,355.5,267.0,363.5,259.5" stroke="black" stroke-width="2" fill="none" />
<polyline points="364.0,251.5,355.5,259.5,347.0,267.0,339.0,274.5,331.0,281.5,323.0,289.0,315.0,297.0" stroke="black" stroke-width="2" fill="none" />
<polyline points="307.5,296.0,315.0,289.0,322.5,281.5,331.0,274.0,340.0,266.0,348.5,258.0,356.5,250.5,364.5,243.0" stroke="black" stroke-width="2" fill="none" />
<polyline points="364.5,235.0,356.5,242.5,348.5,249.5,340.0,257.0,331.5,265.0,322.5,272.5,314.5,280.0,307.0,288.0,299.5,295.5" stroke="black" stroke-width="2" fill="none" />
<polyline points="291.5,295.5,299.5,288.0,307.5,280.5,315.5,273.0,323.5,265.0,331.5,257.5,339.5,250.0,348.0,243.0,356.0,235.5" stroke="black" stroke-width="2" fill="none" />
<polyline points="354.5,228.0,346.5,236.0,338.5,244.0,331.0,251.5,324.0,259.0,317.0,266.5,309.5,274.0,301.5,281.5,293.5,288.5,286.0,295.5" stroke="black" stroke-width="2" fill="none" />
<polyline points="275.0,297.5,282.5,290.5,290.0,283.5,298.0,276.0,306.0,268.5,314.0,261.5" stroke="black" stroke-width="2" fill="none" />
<polyline points="308.0,261.0,300.0,268.5,292.0,275.5,284.0,283.0,276.0,290.0,268.5,297.5" stroke="black" stroke-width="2" fill="none" />
<polyline points="259.0,297.0,267.5,290.0,275.0,283.0,283.0,275.5,291.0,268.0,299.5,261.0" stroke="black" stroke-width="2" fill="none" />
<polyline points="290.5,261.5,282.5,268.5,275.0,276.0,267.5,283.5,260.0,290.5,252.0,297.5" stroke="black" stroke-width="2" fill="none" />
<polyline points="244.0,297.5,252.0,290.5,260.5,283.0,268.5,275.5,277.0,268.5,285.5,261.0" stroke="black" stroke-width="2" fill="none" />
<polyline points="276.5,260.5,269.0,268.5,261.0,276.0,253.0,284.0,244.0,291.5,236.0,299.0" stroke="black" stroke-width="2" fill="none" />
<polyline points="228.0,298.0,236.0,290.5,244.5,283.0,252.5,276.0,261.0,269.0,268.5,261.5" stroke="black" stroke-width="2" fill="none" />
<polyline points="259.5,258.5,251.0,266.0,243.0,274.5,235.5,282.5,227.5,290.0,219.0,297.5" stroke="black" stroke-width="2" fill="none" />
<polyline points="211.5,298.0,219.0,290.0,227.0,282.0,235.0,274.0,244.0,265.5,252.0,257.5" stroke="black" stroke-width="2" fill="none" />
<polyline points="243.0,259.0,235.5,266.0,227.5,274.0,219.0,282.0,210.5,290.0,202.5,298.5" stroke="black" stroke-width="2" fill="none" />
<polyline points="199.0,293.0,194.5,301.0,192.5,309.5,189.5,317.5,187.5,325.5,183.0,333.5,180.0,342.0,178.0,350.0,175.0,358.0,172.0,366.0,169.0,374.0,167.0,382.0" stroke="black" stroke-width="2" fill="none" />
<polyline points="170.5,381.0,162.5,388.5" stroke="black" stroke-width="2" fill="none" />
<polyline points="145.5,387.0,154.0,379.5,162.0,372.5,170.5,365.5,179.0,358.5" stroke="black" stroke-width="2" fill="none" />
<polyline points="179.0,349.5,170.5,356.5,162.5,364.0,155.0,371.0,147.0,378.0,139.0,386.0" stroke="black" stroke-width="2" fill="none" />
<polyline points="131.0,383.0,139.0,375.5,146.5,368.5,155.0,360.5,163.5,353.0,172.0,345.5,180.0,339.0,187.0,332.0" stroke="black" stroke-width="2" fill="none" />
<polyline points="186.5,324.0,178.5,331.5,171.0,339.0,163.0,346.0,155.0,353.5,147.0,361.5,139.0,368.5,130.5,376.0" stroke="black" stroke-width="2" fill="none" />
<polyline points="133.5,379.0,141.5,378.5,150.0,378.0,158.0,378.0,166.0,377.5,173.5,377.0" stroke="black" stroke-width="2" fill="none" />
<polyline points="172.0,372.0,164.0,379.5,156.0,386.5" stroke="black" stroke-width="2" fill="none" />
<polyline points="141.0,362.0,148.5,361.5,156.5,360.5,164.0,360.0,171.5,359.0" stroke="black" stroke-width="2" fill="none" />
<polyline points="177.5,335.0,170.5,336.0,162.5,336.5,154.0,337.0,146.0,337.5" stroke="black" stroke-width="2" fill="none" />
<polyline points="141.5,342.0,150.0,334.5,157.5,327.0,165.5,319.0,173.0,311.0,181.0,303.0,189.0,296.0,197.0,288.5,205.0,281.5,213.0,274.5,221.0,267.0,229.0,259.5" stroke="black" stroke-width="2" fill="none" />
<polyline points="236.0,261.0,227.5,269.0,219.5,276.5,211.0,284.5,202.5,291.5,194.5,299.0,186.0,306.5,178.0,314.0,170.0,321.0,161.5,328.5,154.0,336.5,146.0,343.5,138.0,351.0,130.0,358.5" stroke="black" stroke-width="2" fill="none" />
<polyline points="131.5,356.0,140.0,355.5,148.0,355.5,156.0,355.0,164.0,354.5,171.5,354.0,179.5,354.0" stroke="black" stroke-width="2" fill="none" />
<polyline points="188.0,321.0,180.0,322.0,171.5,323.0,163.5,323.5,155.5,323.5" stroke="black" stroke-width="2" fill="none" />
<polyline points="148.5,326.0,156.0,325.5,164.0,325.0,171.5,324.5,179.5,324.5,187.0,324.0" stroke="black" stroke-width="2" fill="none" />
<polyline points="195.5,307.0,187.5,314.5,180.0,322.0,172.0,329.0,163.5,336.0,156.0,343.5,147.5,351.5,139.0,360.0,131.0,368.0" stroke="black" stroke-width="2" fill="none" />
<polyline points="131.0,370.5,139.0,370.0,147.5,369.0,155.5,368.0,163.0,367.0,171.5,367.0" stroke="black" stroke-width="2" fill="none" />
<polyline points="179.0,350.0,170.5,350.0,163.0,350.0,155.0,350.5,146.5,351.0,138.5,352.0" stroke="black" stroke-width="2" fill="none" />
<polyline points="136.5,345.5,145.0,345.0,154.0,344.0,162.0,344.0,171.0,343.5,179.5,343.0" stroke="black" stroke-width="2" fill="none" />
<polyline points="148.0,328.5,156.0,320.5,163.5,312.5,171.5,304.5,180.0,296.5,188.0,288.5,196.0,281.0,204.0,273.5,212.5,266.0,220.5,258.5" stroke="black" stroke-width="2" fill="none" />
<polyline points="212.0,257.5,204.5,265.0,197.0,272.5,189.5,280.5,181.5,289.0,173.0,297.0,165.0,304.5,156.5,312.5,148.5,320.0" stroke="black" stroke-width="2" fill="none" />
<polyline points="148.5,318.0,156.0,317.0,164.0,316.5,172.5,316.0,181.0,315.0,188.5,314.0,196.0,314.0" stroke="black" stroke-width="2" fill="none" />
<polyline points="194.5,312.0,186.5,312.5,178.5,312.5,170.5,313.0,162.5,313.5,154.0,314.0" stroke="black" stroke-width="2" fill="none" />
<polyline points="150.0,311.0,158.0,310.5,165.0,310.0,172.5,310.0,181.0,309.5,188.5,308.5,196.0,308.0" stroke="black" stroke-width="2" fill="none" />
<polyline points="194.5,304.0,186.5,304.5,178.5,305.0,170.5,306.0,162.5,306.5,154.0,307.5" stroke="black" stroke-width="2" fill="none" />
<polyline points="156.5,304.5,164.5,297.0,172.5,290.0,180.5,282.5,188.5,275.0,196.0,267.5,204.0,260.0,211.5,252.5,220.0,245.0" stroke="black" stroke-width="2" fill="none" />
<polyline points="220.5,234.5,212.5,242.5,204.5,250.5,196.5,258.5,188.5,266.5,180.5,273.5,172.0,281.5,163.5,289.0,155.5,296.5" stroke="black" stroke-width="2" fill="none" />
<polyline points="156.5,300.5,164.0,300.5,172.0,299.5,180.0,299.5,187.5,299.0,195.5,298.5" stroke="black" stroke-width="2" fill="none" />
<polyline points="196.0,297.5,204.0,294.5,212.0,294.5,220.0,294.0,228.0,294.0,236.0,294.0,244.5,294.0,252.5,294.0,260.5,294.0,268.5,294.5,276.5,294.5,284.5,294.5,292.5,294.0,300.5,294.0,308.0,293.5,316.0,293.5,323.5,293.5,331.5,293.5,334.5,300.5,337.5,309.0,340.5,317.5,343.5,325.0,345.5,332.5,348.5,340.5,351.5,348.5,355.0,356.5,358.0,364.5,360.5,372.5,363.5,380.5,369.0,382.5,377.0,383.0,385.0,383.0,393.0,383.0,400.5,383.0,408.5,383.5" stroke="black" stroke-width="2" fill="none" />
<polyline points="387.0,306.0,379.0,306.5,371.0,307.5,363.0,308.0,355.5,308.5,347.5,309.5,339.5,310.0" stroke="black" stroke-width="2" fill="none" />
<polyline points="324.5,258.5,333.0,257.5,341.5,256.5,349.5,256.0,357.5,256.0,365.0,256.0" stroke="black" stroke-width="2" fill="none" />
<polyline points="355.0,219.5,347.5,227.0,340.0,235.0,332.5,242.5,324.5,250.0" stroke="black" stroke-width="2" fill="none" />
<polyline points="322.0,251.0,330.0,250.0,338.5,248.5,347.0,247.5,356.0,246.5,365.0,246.0" stroke="black" stroke-width="2" fill="none" />
<polyline points="356.5,211.5,348.5,219.0,340.5,227.0,332.5,234.5,324.0,242.0" stroke="black" stroke-width="2" fill="none" />
<polyline points="323.0,241.5,331.0,241.0,339.5,240.5,348.0,240.5,355.5,240.0" stroke="black" stroke-width="2" fill="none" />
<polyline points="347.0,210.5,339.0,218.0,331.0,226.0,323.0,234.0,314.5,242.0" stroke="black" stroke-width="2" fill="none" />
<polyline points="313.5,245.5,322.0,245.5,330.5,245.0,339.0,244.0,347.0,243.0,355.0,242.5,363.0,242.0" stroke="black" stroke-width="2" fill="none" />
<polyline points="372.0,251.0,363.5,252.0,355.5,252.5,347.5,253.5,339.5,254.0,331.5,254.5,324.0,255.5" stroke="black" stroke-width="2" fill="none" />
<polyline points="314.0,238.0,322.0,237.5,329.5,237.0,338.0,236.5,346.0,235.5,354.5,235.0,362.5,234.5" stroke="black" stroke-width="2" fill="none" />
<polyline points="346.0,203.5,338.0,211.0,330.0,218.5,322.0,226.0,313.5,233.5" stroke="black" stroke-width="2" fill="none" />
<polyline points="315.0,233.0,323.0,233.0,331.5,233.5,339.5,233.0,348.0,232.5,356.0,232.0" stroke="black" stroke-width="2" fill="none" />
<polyline points="346.0,196.0,338.0,204.0,329.5,212.0,321.5,219.5,314.0,227.0" stroke="black" stroke-width="2" fill="none" />
<polyline points="315.0,225.5,322.5,224.5,330.5,224.5,338.5,224.0,347.5,223.0,356.0,222.5" stroke="black" stroke-width="2" fill="none" />
<polyline points="346.5,189.0,338.5,196.5,331.0,204.5,323.5,212.0,316.0,219.0" stroke="black" stroke-width="2" fill="none" />
<polyline points="314.0,218.0,322.0,217.5,330.5,217.5,338.5,217.0,346.0,216.0" stroke="black" stroke-width="2" fill="none" />
<polyline points="339.5,188.5,331.5,196.0,323.0,203.5,315.5,210.5,307.5,218.0" stroke="black" stroke-width="2" fill="none" />
<polyline points="306.5,220.5,314.5,220.5,323.0,220.5,331.5,220.0,340.0,219.0,348.0,217.5,356.5,217.0" stroke="black" stroke-width="2" fill="none" />
<polyline points="338.5,179.0,330.5,187.0,322.5,194.5,315.0,202.5,307.0,211.0" stroke="black" stroke-width="2" fill="none" />
<polyline points="307.0,213.0,315.0,213.0,323.0,212.5,331.0,212.0,339.0,211.0,347.5,210.5,356.0,210.0" stroke="black" stroke-width="2" fill="none" />
<polyline points="341.0,172.0,332.5,179.5,324.0,187.0,315.5,194.5,307.5,202.0" stroke="black" stroke-width="2" fill="none" />
<polyline points="306.0,203.5,314.0,203.0,322.0,202.5,330.5,202.0,338.5,202.0,346.5,202.0,355.0,202.0" stroke="black" stroke-width="2" fill="none" />
<polyline points="333.5,172.0,325.5,179.5,316.5,186.0,308.0,193.5" stroke="black" stroke-width="2" fill="none" />
<polyline points="305.5,200.0,313.5,199.0,321.5,198.5,330.0,198.0,338.0,198.0,346.5,198.5" stroke="black" stroke-width="2" fill="none" />
<polyline points="331.0,164.0,323.0,172.0,315.0,179.5,307.0,187.0,299.5,194.0" stroke="black" stroke-width="2" fill="none" />
<polyline points="299.0,195.5,307.5,195.0,315.5,194.5,323.5,194.5,331.0,194.5,339.0,194.0,347.0,194.0" stroke="black" stroke-width="2" fill="none" />
<polyline points="330.5,156.5,322.0,164.5,314.5,172.0,306.5,179.5,298.5,186.5" stroke="black" stroke-width="2" fill="none" />
<polyline points="299.5,188.0,308.0,187.5,315.5,186.0,323.5,185.0,331.0,184.5,338.5,184.5" stroke="black" stroke-width="2" fill="none" />
<polyline points="331.0,148.0,323.5,155.5,315.5,163.0,307.5,170.5,299.5,177.5" stroke="black" stroke-width="2" fill="none" />
<polyline points="298.5,176.5,307.0,176.0,315.5,175.5,323.5,175.0,331.5,174.5,339.5,174.0" stroke="black" stroke-width="2" fill="none" />
<polyline points="325.0,147.5,316.5,155.0,307.5,162.5,299.0,170.0,290.5,178.0" stroke="black" stroke-width="2" fill="none" />
<polyline points="291.0,180.5,298.5,180.0,306.5,179.5,314.5,178.5,322.5,178.0,330.5,177.0,338.5,177.0,347.0,176.5" stroke="black" stroke-width="2" fill="none" />
<polyline points="324.0,140.5,315.5,148.0,308.0,155.5,300.0,163.0,291.5,170.0" stroke="black" stroke-width="2" fill="none" />
<polyline points="292.0,171.5,300.0,171.5,308.0,171.5,315.0,171.0,323.0,171.0,330.0,170.0,338.0,169.5" stroke="black" stroke-width="2" fill="none" />
<polyline points="323.0,132.0,315.5,139.5,307.0,147.0,299.0,154.5,290.5,162.5" stroke="black" stroke-width="2" fill="none" />
<polyline points="291.5,164.0,300.0,163.5,308.0,163.5,316.0,163.0,324.0,162.5,332.0,162.5,340.0,162.0" stroke="black" stroke-width="2" fill="none" />
<polyline points="322.0,124.5,314.0,132.0,306.5,139.0,298.5,146.5,290.5,154.0" stroke="black" stroke-width="2" fill="none" />
<polyline points="290.5,153.0,298.0,152.5,306.0,152.5,314.0,152.5,322.0,152.0" stroke="black" stroke-width="2" fill="none" />
<polyline points="315.0,125.0,307.0,132.0,299.0,139.0,291.0,146.0,283.0,153.0" stroke="black" stroke-width="2" fill="none" />
<polyline points="283.5,151.5,291.0,150.5,299.0,149.5,306.5,149.0,315.0,148.5,323.5,148.0,331.5,147.5" stroke="black" stroke-width="2" fill="none" />
<polyline points="318.0,115.5,309.5,123.0,301.0,130.0,292.0,137.0,283.5,144.5" stroke="black" stroke-width="2" fill="none" />
<polyline points="284.0,146.0,292.5,145.0,300.5,144.5,308.0,144.0,315.5,144.5,323.5,144.0" stroke="black" stroke-width="2" fill="none" />
<polyline points="331.0,166.0,323.0,166.5,316.0,167.0,308.0,167.0,300.0,167.5,292.0,168.0" stroke="black" stroke-width="2" fill="none" />
<polyline points="291.5,160.5,300.0,160.0,307.5,159.5,315.5,159.0,324.0,158.5,332.0,159.0" stroke="black" stroke-width="2" fill="none" />
<polyline points="338.0,190.5,330.5,190.5,323.5,190.5,316.0,191.0,308.0,191.0,299.5,191.5" stroke="black" stroke-width="2" fill="none" />
<polyline points="299.5,189.0,307.0,188.5,315.0,188.0,323.0,188.0,331.0,188.5,339.0,188.0,346.5,187.5" stroke="black" stroke-width="2" fill="none" />
<polyline points="363.5,228.5,356.0,228.5,347.5,228.5,339.0,228.0,331.0,228.5,323.5,229.0,316.0,229.5" stroke="black" stroke-width="2" fill="none" />
<polyline points="305.0,209.0,313.0,208.5,321.0,208.0,329.0,207.5,338.0,207.5,346.5,207.0" stroke="black" stroke-width="2" fill="none" />
<polyline points="329.5,154.5,321.5,154.5,313.5,156.0,305.5,157.0,297.5,158.0,290.5,158.5,282.5,158.5" stroke="black" stroke-width="2" fill="none" />
<polyline points="282.5,141.0,291.0,141.0,299.0,140.0,307.0,139.5,315.5,139.5,324.0,139.0,332.0,139.0" stroke="black" stroke-width="2" fill="none" />
<polyline points="316.5,108.0,308.5,115.5,300.0,122.0,291.5,129.5,283.5,137.0" stroke="black" stroke-width="2" fill="none" />
<polyline points="282.5,139.0,290.5,138.5,298.5,138.0,306.5,137.5,314.5,136.5,323.5,136.0" stroke="black" stroke-width="2" fill="none" />
<polyline points="314.5,101.0,307.0,109.0,299.5,116.0,292.0,123.0,284.0,129.5" stroke="black" stroke-width="2" fill="none" />
<polyline points="284.0,130.0,292.0,129.5,299.5,129.0,307.5,128.5,316.0,127.5" stroke="black" stroke-width="2" fill="none" />
<polyline points="308.5,101.0,300.5,108.0,292.0,115.0,283.5,122.0,276.0,129.5" stroke="black" stroke-width="2" fill="none" />
<polyline points="275.5,126.5,284.0,126.0,292.0,125.5,300.0,125.0,308.0,125.0,315.5,124.5,324.0,124.0" stroke="black" stroke-width="2" fill="none" />
<polyline points="306.5,92.5,299.0,100.0,291.5,107.5,284.0,115.0,276.5,122.5" stroke="black" stroke-width="2" fill="none" />
<polyline points="274.5,121.5,282.0,121.0,290.5,121.0,298.5,120.5,306.5,120.0,314.5,119.0" stroke="black" stroke-width="2" fill="none" />
<polyline points="308.0,84.0,300.0,92.0,292.0,100.0,284.5,107.5,276.0,115.0" stroke="black" stroke-width="2" fill="none" />
<polyline points="274.0,113.5,282.0,113.0,290.0,112.0,298.5,111.5,307.0,111.5,315.0,110.5" stroke="black" stroke-width="2" fill="none" />
<polyline points="299.0,82.0,291.0,90.0,284.0,97.5,276.0,105.0" stroke="black" stroke-width="2" fill="none" />
<polyline points="267.5,110.5,270.0,118.5,273.0,126.5,276.0,134.0,277.5,142.0,281.5,150.0,284.0,158.5,285.5,167.0,288.5,175.5,291.5,183.5,294.5,191.5,297.5,199.5,300.5,207.5,304.5,215.5,307.0,224.0,310.5,232.5,313.0,240.0,316.0,248.0" stroke="black" stroke-width="2" fill="none" />
<polyline points="228.0,219.0,220.0,226.5,212.0,234.5,204.5,242.0,196.5,250.0,188.5,258.0,180.5,265.5,172.5,272.5,164.5,280.0" stroke="black" stroke-width="2" fill="none" />
<polyline points="162.5,279.0,170.0,278.0,178.0,277.0,186.5,276.5,194.5,275.5,203.0,274.5,211.5,274.0,220.0,274.0,228.5,273.5,237.0,273.0,245.0,272.5,253.5,272.0,261.5,272.0,269.5,271.5,277.0,271.0,285.5,270.5,292.5,270.0,300.0,269.5,307.5,269.0,315.0,269.5,322.5,269.0,330.5,268.5,338.5,268.0,346.5,267.5,354.5,266.5,363.5,266.0,371.5,265.0,379.5,264.0" stroke="black" stroke-width="2" fill="none" />
<polyline points="236.0,195.5,228.0,203.0,220.0,210.5,212.0,218.0,203.5,226.0,195.0,233.5,187.5,241.0,179.5,249.0,171.5,256.5" stroke="black" stroke-width="2" fill="none" />
<polyline points="171.5,258.0,179.5,257.5,188.0,257.0,196.0,256.5,204.0,256.5,212.0,255.5" stroke="black" stroke-width="2" fill="none" />
<polyline points="220.0,233.0,212.0,233.0,204.0,233.5,196.0,234.0,188.0,235.0" stroke="black" stroke-width="2" fill="none" />
<polyline points="180.0,238.0,187.5,237.0,195.5,236.0,203.5,235.0,211.5,234.0,219.0,233.5" stroke="black" stroke-width="2" fill="none" />
<polyline points="225.5,208.5,217.5,216.5,210.5,224.5,202.5,232.5,194.5,240.5,187.0,248.0,179.0,256.5,171.0,265.0,162.5,273.0" stroke="black" stroke-width="2" fill="none" />
<polyline points="162.5,272.5,170.5,271.5,178.0,270.5,186.0,269.5,194.5,269.0,202.5,268.5,211.0,268.0,219.5,266.5,227.5,265.5,235.5,265.5,243.5,264.5,251.5,264.0,259.5,263.5,267.5,263.0,276.0,262.5,284.0,262.0,292.0,261.5,300.0,261.5,308.0,261.0,316.0,260.5,324.0,260.0,332.0,259.5,339.5,259.0,347.5,258.5,356.0,257.5,364.5,257.0,373.0,256.5" stroke="black" stroke-width="2" fill="none" />
<polyline points="242.0,181.5,234.0,189.0,226.5,196.5,218.5,204.0,211.0,211.5,203.0,218.5,195.5,226.5,187.0,234.0,179.0,241.0" stroke="black" stroke-width="2" fill="none" />
<polyline points="180.5,242.5,188.5,241.5,196.5,240.5,204.0,239.5,211.5,238.5,219.5,237.5" stroke="black" stroke-width="2" fill="none" />
<polyline points="226.0,207.0,218.5,207.5,211.0,208.0,203.0,209.0,196.0,210.5" stroke="black" stroke-width="2" fill="none" />
<polyline points="189.0,213.0,197.0,212.5,205.5,212.0,213.5,211.0,221.0,210.0,229.0,209.5" stroke="black" stroke-width="2" fill="none" />
<polyline points="236.0,183.5,227.5,184.0,219.5,184.5,211.5,185.0,203.5,185.5" stroke="black" stroke-width="2" fill="none" />
<polyline points="196.0,183.5,203.5,176.0,211.0,168.0,219.0,160.0,227.0,153.0,235.5,145.0,243.5,138.0,252.0,131.0,260.0,123.0" stroke="black" stroke-width="2" fill="none" />
<polyline points="259.0,131.0,251.0,138.5,243.5,145.5,235.5,153.0,227.5,161.5,219.5,169.0,211.5,176.5,203.0,183.5,195.0,191.0" stroke="black" stroke-width="2" fill="none" />
<polyline points="194.0,190.0,202.0,190.0,210.0,189.0,218.5,188.0,227.0,187.0,235.0,186.5,243.0,185.5" stroke="black" stroke-width="2" fill="none" />
<polyline points="241.5,173.5,234.0,181.0,226.5,188.5,219.0,196.0,211.0,203.5,203.0,210.5,194.5,218.0,186.5,225.5,178.0,232.5" stroke="black" stroke-width="2" fill="none" />
<polyline points="179.5,229.5,187.0,229.0,195.0,229.5,203.0,229.0,210.5,228.0,218.0,228.0,226.5,227.0" stroke="black" stroke-width="2" fill="none" />
<polyline points="234.0,197.5,226.0,198.0,218.0,198.5,210.0,199.0,202.0,200.0,194.0,200.5" stroke="black" stroke-width="2" fill="none" />
<polyline points="194.0,194.5,202.5,194.5,210.5,193.0,218.5,192.0,227.0,191.5,235.0,191.0" stroke="black" stroke-width="2" fill="none" />
<polyline points="243.0,160.0,236.0,160.0,228.5,160.5,221.0,160.5,213.0,161.0" stroke="black" stroke-width="2" fill="none" />
<polyline points="213.5,153.0,221.0,153.0,229.0,152.5,237.0,152.5,245.0,153.0,252.5,152.5" stroke="black" stroke-width="2" fill="none" />
<polyline points="250.5,154.5,242.5,162.0,234.5,169.5,226.5,177.5,217.5,185.0,209.5,193.0,201.5,201.0,194.0,209.0,186.0,216.5" stroke="black" stroke-width="2" fill="none" />
<polyline points="190.0,216.0,198.0,215.5,206.0,216.0,214.0,215.5,221.5,214.5,230.0,214.0" stroke="black" stroke-width="2" fill="none" />
<polyline points="242.0,175.0,233.5,175.0,225.5,175.0,218.0,175.5,210.0,176.0,201.5,176.5" stroke="black" stroke-width="2" fill="none" />
<polyline points="195.0,174.0,203.0,173.5,211.5,173.0,219.5,172.5,228.0,172.0,236.0,171.0,244.0,171.0" stroke="black" stroke-width="2" fill="none" />
<polyline points="252.0,146.0,244.0,153.5,235.5,161.5,227.0,169.0,219.0,176.5,210.5,184.5,202.5,192.0,195.0,200.5,187.0,208.5" stroke="black" stroke-width="2" fill="none" />
<polyline points="187.0,204.0,195.0,204.0,203.0,204.0,211.5,204.0,220.0,203.5,228.5,202.5,237.0,202.0" stroke="black" stroke-width="2" fill="none" />
<polyline points="243.5,167.5,235.5,167.5,227.0,167.0,219.0,167.0,210.5,167.5,202.5,167.5" stroke="black" stroke-width="2" fill="none" />
<polyline points="204.5,165.0,212.5,157.5,220.5,150.0,229.0,142.0,237.0,134.5,245.0,127.0,252.5,119.5,260.0,112.0,268.0,105.0,275.5,97.5,283.0,90.0,291.0,82.0,298.5,75.0" stroke="black" stroke-width="2" fill="none" />
<polyline points="298.0,68.0,290.5,75.0,283.0,82.0,275.5,89.5,268.0,97.0,261.0,104.0,253.0,111.5,244.5,119.0,236.0,126.5,228.0,134.5,220.5,142.0,212.5,149.5" stroke="black" stroke-width="2" fill="none" />
<polyline points="213.5,150.5,221.0,150.0,228.5,149.5,236.0,148.5,243.5,148.0,251.5,147.0" stroke="black" stroke-width="2" fill="none" />
<polyline points="276.0,133.5,284.0,132.5,292.5,132.0,300.5,131.5,308.0,131.0,316.0,131.0,324.0,130.5" stroke="black" stroke-width="2" fill="none" />
<polyline points="322.0,116.0,314.0,116.5,306.0,117.0,297.0,118.0,289.0,118.0,281.0,118.0,273.5,118.5" stroke="black" stroke-width="2" fill="none" />
<polyline points="260.0,118.5,253.0,118.5,245.5,119.0,238.0,120.0,230.5,120.5" stroke="black" stroke-width="2" fill="none" />
<polyline points="228.0,113.0,236.0,112.5,244.0,112.0,252.0,111.5,260.0,110.5" stroke="black" stroke-width="2" fill="none" />
<polyline points="264.5,107.5,266.5,105.5,262.5,113.5,260.5,121.5,257.5,130.0,253.5,138.5,251.5,146.0,248.0,154.0,245.5,162.0,242.5,170.0,239.0,178.0,237.5,186.0,234.5,193.5,230.5,201.5,228.5,209.5,226.0,217.5,222.0,225.0,219.0,233.0,217.0,241.0,214.5,248.5,212.5,257.0,222.5,254.5,230.5,254.5,238.5,254.5,246.5,254.5,254.5,254.5,262.0,254.0,270.0,254.0,277.5,254.0,285.5,254.0,294.0,254.0,302.0,253.5,310.0,254.0,318.0,254.0" stroke="black" stroke-width="2" fill="none" />
<polyline points="250.5,143.5,243.0,144.5,235.0,145.0,227.0,146.0,219.0,146.5" stroke="black" stroke-width="2" fill="none" />
<polyline points="213.0,141.0,221.0,140.5,229.0,140.0,236.5,139.5,244.5,139.5,252.0,139.0,259.5,138.5" stroke="black" stroke-width="2" fill="none" />
<polyline points="221.0,128.0,229.0,120.5,237.5,113.0,245.5,106.0,253.0,98.5,261.0,91.0,269.0,84.0,277.0,77.0,285.5,69.5" stroke="black" stroke-width="2" fill="none" />
<polyline points="285.0,62.5,292.5,62.5" stroke="black" stroke-width="2" fill="none" />
<polyline points="293.0,69.0,285.0,76.5,276.5,84.0,268.0,91.0,260.0,98.0,251.5,105.0,243.5,112.5,235.0,120.0,226.5,127.5,218.5,135.5,210.5,143.0" stroke="black" stroke-width="2" fill="none" />
<polyline points="213.0,133.5,221.5,133.0,229.5,133.0,237.5,132.5,245.0,132.0,253.5,131.5,260.5,131.0" stroke="black" stroke-width="2" fill="none" />
<polyline points="226.0,106.5,234.5,99.0,242.5,91.5,251.0,84.0,259.5,76.0,267.5,68.0" stroke="black" stroke-width="2" fill="none" />
<polyline points="261.5,67.5,253.5,74.0,245.5,81.5,237.5,89.0,229.0,96.5" stroke="black" stroke-width="2" fill="none" />
<polyline points="227.0,92.0,235.5,91.5,243.0,91.5,251.0,91.5,259.0,91.5,267.0,92.0,275.5,92.0,283.5,91.5,292.0,91.5,300.0,91.5,307.5,91.0" stroke="black" stroke-width="2" fill="none" />
<polyline points="277.5,68.0,269.0,75.0,261.0,83.0,253.0,91.0,244.5,99.0,236.5,106.5,228.0,113.5,219.0,120.5" stroke="black" stroke-width="2" fill="none" />
<polyline points="218.5,117.0,227.0,116.5,235.0,116.5,243.5,116.0,251.5,114.5,259.5,114.0,268.0,113.0" stroke="black" stroke-width="2" fill="none" />
<polyline points="235.5,96.5,243.5,96.5,251.0,96.5,258.5,96.5,267.0,95.5,275.0,95.0,282.5,94.0,290.5,94.0,298.5,94.0,306.0,93.5" stroke="black" stroke-width="2" fill="none" />
<polyline points="274.5,60.0,266.5,60.5" stroke="black" stroke-width="2" fill="none" />
<polyline points="259.5,60.0,251.5,61.0" stroke="black" stroke-width="2" fill="none" />
<polyline points="251.5,66.0,243.5,73.5,235.5,80.5" stroke="black" stroke-width="2" fill="none" />
<polyline points="236.0,77.0,244.0,76.5,252.0,76.0,260.5,75.5,268.0,75.0,275.5,74.5,283.5,74.0,291.0,73.0,298.0,72.5,305.0,72.5" stroke="black" stroke-width="2" fill="none" />
<polyline points="299.0,70.0,291.0,71.0,283.0,71.5,274.5,72.0,266.5,71.5,258.5,72.0,250.5,72.0,242.0,72.5" stroke="black" stroke-width="2" fill="none" />
<polyline points="237.0,68.5,244.5,67.5,252.5,67.0,260.0,66.5,267.5,66.0,274.5,65.0,282.5,65.0,290.0,64.0,298.0,63.5" stroke="black" stroke-width="2" fill="none" />
<polyline points="299.0,86.0,291.5,86.5,284.5,87.0,277.0,87.5,269.0,88.5,261.0,89.5,252.5,90.0,244.0,91.0,236.0,91.5" stroke="black" stroke-width="2" fill="none" />
<polyline points="238.0,83.0,245.5,82.5,253.5,81.5,261.5,81.0,268.5,80.5,276.5,80.5,283.5,79.5,291.0,78.5,298.5,77.5" stroke="black" stroke-width="2" fill="none" />
<polyline points="307.5,98.5,300.0,99.5,292.0,100.5,284.0,101.5,276.0,102.5,267.5,103.0,259.0,103.5,250.0,104.0,241.5,104.5,233.0,105.5,224.5,106.0" stroke="black" stroke-width="2" fill="none" />
<polyline points="226.5,102.0,235.0,101.0,243.0,99.5,251.0,99.0,259.0,98.5,267.0,98.5,275.0,97.5,284.0,97.0,292.0,96.5,299.5,96.0,307.5,96.0,315.0,95.5" stroke="black" stroke-width="2" fill="none" />
<polyline points="306.5,79.5,298.5,80.5,291.0,81.5,282.5,82.0,274.5,82.0,267.0,82.0,259.0,83.0,251.0,84.0,243.0,84.5,235.0,85.0,227.0,85.0" stroke="black" stroke-width="2" fill="none" />
<polyline points="236.5,67.0,244.5,61.0,252.5,62.0,260.5,61.5,268.5,62.5,276.5,61.0,284.5,61.5,292.5,61.5,300.5,63.0,300.0,71.0,303.0,79.0,305.5,87.0,308.0,94.5,311.0,102.5,313.5,110.5,315.5,118.0,318.5,126.0,320.0,134.0,322.5,142.0,326.5,150.0,328.5,158.5,331.5,166.5,336.0,174.0,338.5,182.0,342.0,190.0,345.0,198.0,348.5,206.0,351.5,213.5,353.5,221.5,357.5,229.0,360.0,237.0,362.5,245.0,365.5,253.0,369.0,261.0,370.5,269.5,373.0,277.5,376.5,285.5,379.5,293.5,382.5,301.5,384.0,310.0,388.0,318.0,391.0,326.0,393.0,334.0,396.0,342.0,399.5,350.5,402.0,358.0,405.0,366.0,408.0,374.0,411.5,382.0" stroke="black" stroke-width="2" fill="none" />
<polyline points="221.0,223.5,212.5,224.0,204.5,224.5,197.0,224.5,189.0,225.5" stroke="black" stroke-width="2" fill="none" />
<polyline points="177.0,222.5,185.5,221.5,194.0,221.5,203.0,221.0,211.5,221.0,220.0,221.0,227.5,220.0" stroke="black" stroke-width="2" fill="none" />
<polyline points="242.0,177.5,234.0,178.0,226.5,178.5,218.0,179.5,210.5,180.5,203.0,181.5,195.0,182.0" stroke="black" stroke-width="2" fill="none" />
<polyline points="187.5,199.0,196.0,198.5,204.5,197.5,212.5,197.0,220.0,196.5,227.5,195.5,235.5,194.5" stroke="black" stroke-width="2" fill="none" />
<polyline points="252.0,162.0,244.0,162.5,236.0,163.0,227.5,163.0,219.0,163.5,211.0,163.5,203.0,164.0" stroke="black" stroke-width="2" fill="none" />
<polyline points="202.0,158.0,210.0,157.0,218.5,156.0,226.5,155.5,234.5,155.0,242.5,154.5,250.5,154.5" stroke="black" stroke-width="2" fill="none" />
<polyline points="250.5,134.5,242.5,135.5,234.5,136.0,226.5,136.0,218.0,136.0" stroke="black" stroke-width="2" fill="none" />
<polyline points="218.0,128.0,225.5,128.0,234.0,127.0,242.0,126.5,250.0,126.0,258.0,125.0" stroke="black" stroke-width="2" fill="none" />
<polyline points="260.0,122.0,252.0,122.5,243.5,123.0,235.5,123.5,227.0,124.0,218.5,125.0" stroke="black" stroke-width="2" fill="none" />
<polyline points="220.5,109.0,228.5,108.5,236.0,108.5,243.5,108.0,251.5,106.5,259.0,105.5,266.5,105.5,274.0,105.5,282.0,105.5,290.0,104.5,298.5,104.0,306.0,103.5,314.0,103.5" stroke="black" stroke-width="2" fill="none" />
<polyline points="240.0,59.5,235.0,67.5,232.0,75.5,229.0,83.5,226.5,91.0,223.5,99.0,221.5,107.5,217.5,115.5,214.5,124.0,212.5,132.0,209.5,140.0,205.0,148.0,203.0,156.0,200.0,164.0,196.5,171.5,193.5,179.5,190.5,187.5,188.0,195.5,184.0,203.5,181.5,211.0,179.0,219.0,176.5,227.5,172.5,236.0,170.5,244.0,167.5,251.5,163.5,259.5,161.5,267.5,158.5,275.0,156.0,283.0,153.5,291.0,151.5,299.0,148.5,307.0,144.5,315.5,142.0,323.5,138.5,331.5,135.0,339.5,132.0,347.5,129.0,355.5,127.0,363.5,123.0,371.0,120.0,379.0,124.0,382.0,132.5,382.0,140.5,382.0,148.5,382.0,156.5,382.0,165.0,382.0" stroke="black" stroke-width="2" fill="none" />
<polyline points="179.5,363.0,171.0,363.5,163.0,363.5,155.0,364.0,147.5,364.5,139.5,364.5,131.5,364.5" stroke="black" stroke-width="2" fill="none" />
<polyline points="124.0,372.0,132.0,371.5,140.0,371.0,148.5,371.0,157.0,370.5,165.0,370.0,173.0,370.0" stroke="black" stroke-width="2" fill="none" />
<polyline points="187.0,338.5,179.5,339.5,171.0,340.5,162.5,341.0,154.0,342.0,146.0,343.0,138.0,343.0" stroke="black" stroke-width="2" fill="none" />
<polyline points="140.0,334.5,148.0,334.0,156.0,333.0,164.0,333.0,172.0,333.5,180.0,333.0,188.0,332.0" stroke="black" stroke-width="2" fill="none" />
<polyline points="196.0,294.0,187.5,294.0,179.0,294.0,170.5,294.5,162.5,295.0" stroke="black" stroke-width="2" fill="none" />
<polyline points="157.5,290.5,165.0,290.5,172.0,291.0,179.5,291.0,187.5,290.5,195.0,290.5,203.0,290.0,211.0,290.0,219.5,289.5,227.5,289.0,236.0,289.5,243.0,288.0,251.0,287.0,258.5,286.5,266.0,286.0,273.5,285.5,281.5,285.5,289.5,285.0,297.5,284.5,305.0,284.5,313.5,284.5,321.0,284.0,329.0,284.0,337.0,284.0,346.0,283.0,354.0,282.5,362.0,282.0,370.0,281.5,378.0,280.5,386.0,279.5" stroke="black" stroke-width="2" fill="none" />
<polyline points="212.0,248.0,204.5,248.5,197.5,249.5,190.0,250.5,182.0,250.5" stroke="black" stroke-width="2" fill="none" />
<polyline points="171.5,251.0,179.5,251.0,187.5,251.5,195.0,251.0,203.5,251.0,211.5,250.5,219.5,250.0" stroke="black" stroke-width="2" fill="none" />
<polyline points="172.0,261.5,180.5,261.5,188.0,261.0,195.5,261.0,203.0,260.5,211.0,259.5,218.5,259.0,226.5,258.5,234.5,257.5,243.0,256.5,250.5,256.0,259.0,255.0,267.5,254.5,275.5,254.0,284.0,253.5,292.0,253.0,300.5,252.0,308.0,251.5,316.0,251.0,324.0,250.5,331.5,250.0,340.0,249.5,348.0,249.5,356.0,249.0,364.0,248.5,372.0,248.5" stroke="black" stroke-width="2" fill="none" />
<polyline points="370.0,260.0,363.0,261.0,355.0,261.0,348.0,261.5,340.0,261.5,332.0,261.5,324.0,262.0,315.5,262.5,307.0,263.0,298.5,264.0,290.5,265.0,282.5,265.5,274.5,266.5,266.5,267.0,258.5,267.0,250.0,267.0,242.0,267.5,234.0,268.5,226.0,269.0,218.5,269.5,210.5,270.5,203.0,271.0,195.0,271.5,187.5,272.5,179.5,273.0,172.0,273.5" stroke="black" stroke-width="2" fill="none" />
<polyline points="172.0,265.5,180.0,265.0,188.0,264.5,195.5,264.5,203.0,264.5,211.0,263.5,218.5,263.0,226.5,261.5,234.0,260.5,242.0,259.5,250.0,259.0,257.5,259.0,266.0,258.0,274.0,257.5,282.0,257.0,290.0,256.0,298.5,256.0,307.0,255.5,315.5,255.0,324.0,254.5,332.0,254.0,340.0,253.5,348.0,253.0,356.0,253.0,363.0,252.5,371.0,252.0" stroke="black" stroke-width="2" fill="none" />
<polyline points="221.0,241.5,212.5,242.5,203.5,242.5,195.0,243.5,186.5,244.0,178.5,244.0,170.0,245.0" stroke="black" stroke-width="2" fill="none" />
<polyline points="163.0,282.0,171.0,281.0,179.0,281.0,187.5,280.5,195.5,280.0,204.5,279.5,213.0,279.0,221.5,278.5,229.5,277.5,237.5,276.5,245.0,276.0,253.0,275.5,261.0,275.0,268.5,274.5,276.5,274.5,284.0,274.0,291.5,273.5,299.0,273.0,307.0,272.5,314.5,272.0,322.5,271.0,331.0,271.0,339.0,270.0,347.0,269.5,355.5,269.5,364.0,269.0,372.0,269.0" stroke="black" stroke-width="2" fill="none" />
<polyline points="379.0,278.0,371.0,278.5,363.5,278.0,355.5,278.5,348.0,278.0,340.5,278.5,332.5,279.0,324.0,280.0,316.0,280.0,308.0,280.5,299.5,281.0,291.0,281.5,283.5,282.0,275.5,283.0,268.0,283.5,260.5,284.5,253.0,285.0,245.5,285.5,237.5,286.0,229.5,287.0,221.5,287.0,213.0,286.5,205.0,286.5,196.5,286.5,188.0,286.5,179.5,287.0,171.5,287.5,163.0,288.0" stroke="black" stroke-width="2" fill="none" />
<polyline points="156.0,283.5,164.0,283.5,172.0,283.0,180.5,282.5,188.0,282.5,195.5,282.5,203.5,281.5,211.0,281.0,218.5,280.5,226.5,280.0,234.0,279.5,242.0,279.0,250.0,278.0,258.0,277.5,266.0,277.0,274.0,276.5,282.0,276.5,290.0,277.0,298.0,276.5,305.5,276.0,314.0,275.5,322.0,275.0,330.0,274.0,338.5,273.5,347.0,273.5,355.0,272.5,363.5,272.5,371.0,272.5,378.5,272.5" stroke="black" stroke-width="2" fill="none" />
<polyline points="187.0,327.0,179.0,328.0,171.5,328.5,163.5,329.0,155.5,329.0,147.5,329.0" stroke="black" stroke-width="2" fill="none" />
<polyline points="130.5,348.5,139.0,348.0,147.0,347.5,155.0,346.5,163.0,346.0,170.5,345.5,178.0,345.5" stroke="black" stroke-width="2" fill="none" />
<polyline points="172.0,377.5,164.0,377.5,156.0,378.0,147.5,379.0,139.0,379.5,131.5,380.5,123.5,381.0" stroke="black" stroke-width="2" fill="none" />
<polyline points="2.0,2.5,10.0,2.5,18.0,3.0,26.0,3.0,33.5,3.0,41.5,3.5,50.0,3.5,58.5,3.0,66.5,3.0,74.5,3.0,82.5,3.5,90.0,3.0,98.0,3.0,106.0,2.5,114.0,2.0,121.5,2.0,129.5,2.0,137.5,2.0,145.5,2.0,154.0,2.0,162.0,2.0,170.0,2.0,177.5,2.5,185.5,3.0,194.0,3.0,202.0,3.5,210.0,4.0,218.0,4.0,226.5,4.5,234.5,4.5,242.0,5.0,250.5,4.5,258.0,4.0,266.0,4.0,273.5,4.0,281.5,4.0,289.5,3.5,298.0,3.0,306.0,2.5,314.5,2.5,322.5,2.5,330.5,2.5,338.5,2.5,346.0,2.5,354.0,2.5,361.5,3.0,370.0,3.0,378.5,2.5,387.0,2.5,395.5,3.0,403.5,3.0,411.5,2.5,419.5,2.5,427.5,2.5,435.0,2.5,443.5,2.0,451.0,2.5,459.5,3.0,467.5,3.0,475.5,3.5,483.5,3.5,491.0,3.5,499.0,3.0,506.5,3.0,513.0,5.0,513.0,13.0,513.0,21.0,512.5,29.0,513.0,37.0,513.0,44.5,513.0,52.5,513.0,60.5,513.0,69.0,513.0,77.0,512.5,85.5,512.5,93.5,512.0,102.0,512.0,109.5,511.5,117.5,511.5,125.5,511.5,133.5,511.5,141.5,511.5,150.0,511.5,158.0,512.0,165.5,512.5,173.5,513.0,181.5,513.5,190.0,514.0,198.0,514.0,205.5,513.5,213.5,513.5,221.5,513.5,230.0,513.5,238.0,513.5,246.0,513.0,253.5,513.0,261.5,513.0,269.0,513.5,276.5,513.5,284.0,513.5,292.0,513.5,299.5,513.5,307.5,514.0,316.0,514.0,324.0,514.0,332.0,514.0,340.0,514.0,348.0,514.0,355.5,514.0,363.5,514.0,371.5,514.0,379.5,513.5,387.5,513.0,396.0,513.0,404.5,512.5,413.0,512.5,421.0,512.5,429.0,512.5,437.0,512.0,445.5,512.0,453.5,512.0,461.5,511.5,469.0,512.0,477.5,512.0,485.5,512.0,493.5,512.5,501.5,513.0,509.5" stroke="black" stroke-width="2" fill="none" />
</svg>